<?xml version="1.0" standalone="no"?>
<!DOCTYPE svg PUBLIC "-//W3C//DTD SVG 20010904//EN"
 "http://www.w3.org/TR/2001/REC-SVG-20010904/DTD/svg10.dtd">
<svg version="1.0" xmlns="http://www.w3.org/2000/svg"
 width="300.000000pt" height="297.000000pt" viewBox="0 0 300.000000 297.000000"
 preserveAspectRatio="xMidYMid meet">
<g transform="translate(0.000000,297.000000) scale(0.100000,-0.100000)"
fill="#ffcd28" stroke="none">
<path d="M602 2403 c-21 -46 -26 -73 -26 -133 -1 -91 28 -154 102 -226 111
-109 175 -138 565 -253 166 -49 315 -95 331 -101 40 -15 47 -2 11 23 -41 30
-277 218 -634 505 -166 133 -306 242 -312 242 -5 0 -22 -26 -37 -57z m85 -15
c72 -53 160 -123 357 -283 115 -93 243 -197 285 -230 110 -86 129 -105 109
-105 -9 0 -47 9 -84 21 -38 11 -100 29 -139 41 -309 90 -405 131 -496 216 -80
73 -112 137 -113 222 -1 61 23 140 43 140 4 0 21 -10 38 -22z"/>
<path d="M1700 2322 c0 -14 119 -207 130 -210 14 -5 0 -32 -16 -32 -30 0 -114
-51 -140 -85 -36 -47 -42 -109 -15 -152 18 -29 549 -463 566 -463 5 0 5 51 2
113 -14 255 -105 464 -281 646 -97 99 -246 210 -246 183z m190 -168 c184 -174
285 -383 306 -633 4 -45 4 -81 1 -81 -8 0 -33 20 -91 71 -23 20 -103 84 -178
142 -147 113 -189 148 -224 185 -62 64 -27 146 86 202 55 28 50 22 56 54 3 17
-4 42 -21 70 -46 79 -27 76 65 -10z"/>
<path d="M1842 1984 c-43 -47 -52 -107 -27 -168 13 -30 97 -122 160 -175 45
-37 102 -78 118 -84 37 -14 -3 32 -95 110 -108 91 -121 105 -149 157 -24 46
-21 106 7 137 24 26 39 24 53 -8 28 -61 206 -353 219 -358 20 -8 7 25 -48 119
-26 45 -70 122 -99 171 -29 50 -56 93 -59 96 -16 15 -68 17 -80 3z"/>
<path d="M1094 1618 c-2 -4 39 -41 92 -82 l97 -76 306 0 306 1 -26 22 c-14 12
-57 47 -95 77 l-69 55 -303 5 c-167 3 -306 2 -308 -2z m627 -59 c43 -27 77
-57 68 -60 -2 -1 -111 -3 -242 -5 -234 -5 -239 -4 -275 18 -46 28 -82 59 -82
70 0 4 109 8 242 8 l241 0 48 -31z"/>
<path d="M1070 1362 c0 -5 41 -41 91 -80 l90 -72 307 2 306 3 -99 78 -98 77
-299 0 c-164 0 -298 -4 -298 -8z m488 -9 c-21 -2 -55 -2 -75 0 -21 2 -4 4 37
4 41 0 58 -2 38 -4z m112 -28 c40 -23 89 -68 84 -76 -3 -5 -111 -9 -245 -9
-234 0 -240 0 -277 24 -20 13 -44 31 -52 40 -12 15 -12 19 1 26 18 12 469 7
489 -5z"/>
<path d="M1500 1112 c0 -6 10 -16 21 -23 53 -28 719 -473 830 -555 112 -82 53
-14 -237 271 l-309 304 -121 1 c-67 0 -136 3 -153 6 -19 4 -31 2 -31 -4z m472
-209 c97 -98 175 -179 173 -181 -3 -3 -95 56 -437 282 -49 32 -88 62 -88 67 0
5 39 9 87 9 l88 0 177 -177z"/>
</g>
</svg>
