<?xml version="1.0" standalone="no"?>
<!DOCTYPE svg PUBLIC "-//W3C//DTD SVG 20010904//EN"
 "http://www.w3.org/TR/2001/REC-SVG-20010904/DTD/svg10.dtd">
<svg version="1.0" xmlns="http://www.w3.org/2000/svg"
 width="300.000000pt" height="299.000000pt" viewBox="0 0 300.000000 299.000000"
 preserveAspectRatio="xMidYMid meet">
<metadata>
Created by potrace 1.10, written by Peter Selinger 2001-2011
</metadata>
<g transform="translate(0.000000,299.000000) scale(0.100000,-0.100000)"
fill="#ffcd28" stroke="none">
<path d="M1400 2261 c-69 -10 -137 -29 -173 -47 l-28 -15 83 -41 c58 -29 103
-62 149 -107 l67 -66 40 46 c51 57 130 112 207 144 l60 24 -46 19 c-88 38
-253 58 -359 43z m230 -60 c23 -6 22 -9 -30 -43 -31 -21 -66 -48 -79 -62 l-24
-26 -41 38 c-23 21 -56 47 -74 57 -38 23 -40 32 -9 38 36 7 230 6 257 -2z"/>
<path d="M1000 2120 c0 -28 2 -30 41 -30 22 0 39 -3 37 -7 -48 -94 -62 -213
-34 -288 16 -41 16 -45 -1 -77 -15 -27 -18 -57 -18 -168 0 -122 3 -143 28
-216 31 -90 103 -214 167 -287 l42 -48 -22 -60 -23 -60 48 -49 c136 -138 334
-136 464 5 l41 44 -21 55 -20 55 66 83 c82 103 148 233 170 334 22 97 17 262
-9 312 -16 31 -16 37 -2 80 28 79 18 166 -29 275 -6 14 -2 17 29 17 34 0 36 2
36 31 l0 32 -57 -7 c-78 -9 -142 -29 -216 -68 -69 -37 -177 -139 -197 -187 -7
-17 -16 -31 -20 -31 -3 0 -21 22 -39 50 -43 67 -129 142 -207 180 -62 30 -172
59 -226 60 -24 0 -28 -4 -28 -30z m881 -82 c27 -52 37 -177 20 -231 -19 -57
-84 -115 -150 -133 -96 -26 -166 -54 -210 -83 l-43 -29 -33 23 c-41 27 -141
69 -217 90 -145 40 -204 189 -136 348 16 36 26 47 43 47 33 0 35 -8 13 -46
-43 -73 -19 -174 52 -221 48 -33 134 -32 185 2 20 15 39 24 41 22 2 -2 15 -35
28 -73 l23 -69 23 70 c12 39 24 72 26 73 1 2 16 -7 33 -19 48 -35 144 -39 191
-7 39 26 80 97 80 138 0 15 -11 47 -23 73 l-24 46 26 10 c14 5 27 10 28 10 2
1 12 -18 24 -41z m-609 -19 l20 -11 -21 -19 c-21 -20 -28 -64 -13 -85 25 -38
89 -36 111 3 9 17 11 17 28 0 17 -16 16 -18 -10 -45 -23 -22 -36 -27 -77 -27
-41 0 -54 5 -77 28 -23 22 -28 36 -28 76 0 34 6 55 19 70 22 24 21 24 48 10z
m503 -19 c24 -47 19 -95 -14 -132 -26 -29 -35 -33 -80 -33 -41 0 -55 5 -76 25
-24 24 -24 27 -9 48 l16 23 20 -26 c23 -29 68 -34 92 -9 24 23 21 80 -5 97
-20 14 -20 16 -2 26 29 17 41 13 58 -19z m-424 -20 l24 -20 -24 -20 c-47 -40
-80 -13 -51 41 13 24 22 24 51 -1z m343 -13 c14 -40 -3 -53 -43 -33 -17 9 -31
18 -31 21 0 10 45 45 55 42 5 -2 14 -16 19 -30z m-454 -423 c47 -113 64 -217
56 -348 -6 -117 -16 -143 -41 -110 -134 172 -197 351 -180 513 10 107 8 104
75 60 53 -36 61 -47 90 -115z m675 125 c12 -52 9 -190 -5 -254 -7 -33 -23 -85
-36 -115 -30 -68 -145 -240 -161 -240 -15 0 -27 151 -20 254 10 143 72 303
125 325 17 7 40 23 53 37 29 31 36 30 44 -7z m-569 -84 c31 -14 79 -41 106
-60 l49 -36 31 26 c31 26 124 77 165 89 l22 7 -23 -53 c-53 -121 -74 -300 -53
-448 l8 -55 -64 -48 c-35 -25 -72 -49 -81 -53 -11 -4 -42 13 -92 51 l-76 57 7
57 c19 147 1 308 -48 429 -14 34 -22 62 -17 62 5 0 35 -11 66 -25z m141 -691
c17 -5 43 8 102 50 l80 56 17 -55 18 -55 -29 -30 c-16 -17 -53 -42 -82 -57
-89 -43 -188 -25 -276 50 l-38 32 21 62 21 61 72 -54 c40 -30 82 -57 94 -60z"/>
</g>
</svg>
